# xmcd
#
# Track frame offsets: 
#        150
#        14611
#        38886
#        57280
#        80086
#        101734
#        130929
#        143892
#        158156
#        169420
#        192100
#        217159
#        246753
#        268889
#
# Disc length: 3946 seconds
#
# Revision: 2
# Processed by: cddbd v1.5.2PL0 Copyright (c) Steve Scherf et al.
# Submitted via: ExactAudioCopy v1.0b6
#
DISCID=d40f680e
DTITLE=Jeff Mills - The Power
DYEAR=2011
DGENRE=Techno
TTITLE0=The Power (Theme)
TTITLE1=Microbe
TTITLE2=The Intruder Emerges
TTITLE3=A Race To Save Thoughts
TTITLE4=The Exchange
TTITLE5=Hallucinations
TTITLE6=Making Contact
TTITLE7=Watched By What
TTITLE8=Memory Reset
TTITLE9=Spiral Therapy
TTITLE10=The Diagnosis
TTITLE11=Transformation Complete
TTITLE12=Amongst The Shadows
TTITLE13=Drifting Away
EXTD=
EXTT0=
EXTT1=
EXTT2=
EXTT3=
EXTT4=
EXTT5=
EXTT6=
EXTT7=
EXTT8=
EXTT9=
EXTT10=
EXTT11=
EXTT12=
EXTT13=
PLAYORDER=
